<?xml version="1.0" encoding="UTF-8"?>
<svg version="1.1" xmlns="http://www.w3.org/2000/svg" width="800" height="680">
<path d="M0 0 C0.81563416 -0.00705963 1.63126831 -0.01411926 2.47161865 -0.02139282 C36.6124826 -0.24971233 36.6124826 -0.24971233 53.14453125 3.203125 C54.12309082 3.40180176 55.10165039 3.60047852 56.10986328 3.80517578 C91.13382788 11.09387301 124.28202636 25.50897876 152.14453125 48.203125 C152.66998535 48.62851563 153.19543945 49.05390625 153.73681641 49.4921875 C167.95164258 61.07923649 181.07862024 73.85677675 191.98339844 88.63183594 C193.06596406 90.0968049 194.17083667 91.54521671 195.27734375 92.9921875 C204.42094324 105.14779624 211.73634313 118.4369185 218.14453125 132.203125 C218.64533203 133.27723633 218.64533203 133.27723633 219.15625 134.37304688 C228.50655137 154.73950791 234.05311284 176.04503224 237.14453125 198.203125 C237.24765625 198.9362793 237.35078125 199.66943359 237.45703125 200.42480469 C238.26225104 206.80041998 238.363174 213.15772795 238.39453125 219.578125 C238.42546875 221.19654297 238.42546875 221.19654297 238.45703125 222.84765625 C238.4621875 223.88019531 238.46734375 224.91273438 238.47265625 225.9765625 C238.48200195 226.90903809 238.49134766 227.84151367 238.50097656 228.80224609 C238.14453125 231.203125 238.14453125 231.203125 236.74902344 233.02978516 C235.14453125 234.203125 235.14453125 234.203125 233.14453125 234.203125 C233.11875 235.2240625 233.09296875 236.245 233.06640625 237.296875 C231.4577242 283.24922751 214.70014494 328.23021054 186.14453125 364.203125 C185.50644531 365.01040039 184.86835937 365.81767578 184.2109375 366.64941406 C171.23347615 382.81422203 156.28139613 397.49482982 139.14453125 409.203125 C138.41089355 409.70602051 137.67725586 410.20891602 136.92138672 410.72705078 C86.60842517 444.75373576 26.15957846 456.21998787 -33.46484375 445.20703125 C-61.99370461 439.47452452 -90.12521333 428.16895677 -113.85546875 411.203125 C-114.49387695 410.74969727 -115.13228516 410.29626953 -115.79003906 409.82910156 C-124.4224117 403.64896677 -132.60316435 397.16823036 -140.23486328 389.77246094 C-141.38880808 388.65502238 -142.54937097 387.5444009 -143.71435547 386.43847656 C-185.65214538 346.55777814 -208.83933528 291.76721152 -210.85546875 234.203125 C-211.49484375 233.89375 -212.13421875 233.584375 -212.79296875 233.265625 C-214.85546875 232.203125 -214.85546875 232.203125 -215.85546875 231.203125 C-220.0304162 180.22448633 -199.83124759 125.46105895 -167.85546875 86.203125 C-167.43007812 85.6776709 -167.0046875 85.1522168 -166.56640625 84.61083984 C-155.40452796 70.91760702 -143.00763776 57.82727454 -128.85546875 47.203125 C-128.33307617 46.80963867 -127.81068359 46.41615234 -127.27246094 46.01074219 C-113.67913823 35.8415101 -99.24022953 27.36475237 -83.85546875 20.203125 C-83.13939453 19.86925781 -82.42332031 19.53539062 -81.68554688 19.19140625 C-56.3569177 7.56295908 -27.98262838 0.16232257 0 0 Z M-116.85546875 57.203125 C-117.78746094 57.90179688 -118.71945312 58.60046875 -119.6796875 59.3203125 C-126.79077679 64.8397087 -133.3248346 71.01931037 -139.85546875 77.203125 C-140.53738281 77.8425 -141.21929687 78.481875 -141.921875 79.140625 C-177.13445639 113.12771052 -198.19202131 163.77532063 -201.33984375 212.13671875 C-201.45646362 213.90958252 -201.45646362 213.90958252 -201.57543945 215.71826172 C-201.71831521 218.04821095 -201.84244706 220.37939997 -201.94604492 222.71142578 C-202.00767822 223.77216309 -202.06931152 224.83290039 -202.1328125 225.92578125 C-202.17656006 226.87203369 -202.22030762 227.81828613 -202.26538086 228.79321289 C-203.02227629 231.88436504 -204.33991038 232.39310457 -206.85546875 234.203125 C-207.38374971 236.11194586 -207.38374971 236.11194586 -207.1796875 238.21875 C-207.14278809 239.01732422 -207.10588867 239.81589844 -207.06787109 240.63867188 C-204.7695738 268.38730956 -198.53465994 296.30012049 -185.85058594 321.24414062 C-185.14710183 322.62901709 -184.45336788 324.01886685 -183.76660156 325.41210938 C-175.25403997 342.66788622 -164.66438905 357.87345023 -151.85546875 372.203125 C-151.36546387 372.75484375 -150.87545898 373.3065625 -150.37060547 373.875 C-135.70238136 390.32076204 -118.95989409 404.17518127 -99.85546875 415.203125 C-98.69440159 415.91257387 -97.53427752 416.62356801 -96.375 417.3359375 C-71.97216927 432.03698197 -43.10846461 441.03676101 -14.85546875 444.203125 C-14.03618896 444.2959375 -13.21690918 444.38875 -12.37280273 444.484375 C27.31970179 448.54981671 69.42401831 442.38303647 105.18554688 424.19824219 C106.57042334 423.49475808 107.9602731 422.80102413 109.35351562 422.11425781 C126.60929247 413.60169622 141.81485648 403.0120453 156.14453125 390.203125 C156.69625 389.71312012 157.24796875 389.22311523 157.81640625 388.71826172 C196.47990055 354.23370588 222.71348227 304.93252222 228.14453125 253.203125 C228.23492676 252.34299805 228.32532227 251.48287109 228.41845703 250.59667969 C228.67453188 247.9670064 228.88827776 245.33807234 229.08203125 242.703125 C229.15212402 241.89504395 229.2222168 241.08696289 229.29443359 240.25439453 C229.48501399 237.73138437 229.48501399 237.73138437 229.14453125 234.203125 C228.49750244 233.77507568 227.85047363 233.34702637 227.18383789 232.90600586 C225.14453125 231.203125 225.14453125 231.203125 224.47851562 228.05883789 C224.35959961 226.13672485 224.35959961 226.13672485 224.23828125 224.17578125 C224.18842575 223.47945587 224.13857025 222.78313049 224.08720398 222.06570435 C223.98089321 220.57412541 223.88219174 219.08198825 223.79037476 217.58944702 C223.54588983 213.69390529 223.23125409 209.80426315 222.9140625 205.9140625 C222.82140862 204.7675547 222.82140862 204.7675547 222.72688293 203.59788513 C221.97110621 194.60929024 220.36455388 185.93963195 218.14453125 177.203125 C217.93989258 176.37135742 217.73525391 175.53958984 217.52441406 174.68261719 C210.65400892 147.21126629 198.17805458 121.7678979 181.14453125 99.203125 C180.44585938 98.27113281 179.7471875 97.33914062 179.02734375 96.37890625 C173.50794755 89.26781696 167.32834588 82.73375915 161.14453125 76.203125 C160.50515625 75.52121094 159.86578125 74.83929688 159.20703125 74.13671875 C121.64980847 35.22526919 66.20232006 15.31132362 13.03125 14.203125 C-33.97158134 13.83245065 -79.36572791 28.90315593 -116.85546875 57.203125 Z " fill="#FE6A6A" transform="translate(388.85546875,112.796875)"/>
<path d="M0 0 C0.66 0 1.32 0 2 0 C2 1.65 2 3.3 2 5 C2.99531738 4.98042236 2.99531738 4.98042236 4.01074219 4.96044922 C41.31293334 4.54859537 78.81440175 17.26308822 109 39 C110.010625 39.72445312 111.02125 40.44890625 112.0625 41.1953125 C118.51186104 45.98491151 124.50090866 51.14510185 130.375 56.625 C131.02887695 57.2341626 131.68275391 57.8433252 132.35644531 58.47094727 C162.84039207 87.38255597 181.73172503 127.5702856 187 169 C187.13019531 170.00933594 187.26039063 171.01867187 187.39453125 172.05859375 C189.49994941 191.40036858 189.49994941 191.40036858 186.609375 196.41015625 C185 198 185 198 183 198 C182.96261719 198.94617188 182.92523437 199.89234375 182.88671875 200.8671875 C180.65047305 248.93722935 159.56430957 294.21500694 124.03344727 326.80371094 C84.90801406 361.44538178 36.21219341 376.88979136 -15.6796875 373.76171875 C-34.19769094 372.268433 -52.97105891 367.38198244 -70 360 C-70.67401855 359.71431152 -71.34803711 359.42862305 -72.04248047 359.13427734 C-97.23695189 348.34164448 -122.00382768 330.6822067 -139 309 C-139.41781738 308.47809082 -139.83563477 307.95618164 -140.26611328 307.41845703 C-165.47927162 275.76164809 -179.53358615 238.40222974 -181 198 C-181.639375 197.71125 -182.27875 197.4225 -182.9375 197.125 C-185 196 -185 196 -186 194 C-189.20433543 155.91770586 -174.00513095 114.55806865 -152 84 C-151.27554688 82.989375 -150.55109375 81.97875 -149.8046875 80.9375 C-145.01508849 74.48813896 -139.85489815 68.49909134 -134.375 62.625 C-133.4612561 61.64418457 -133.4612561 61.64418457 -132.52905273 60.64355469 C-101.48668399 27.91296796 -56.0602907 7.07332626 -11 5 C-7.3313306 4.93547566 -3.66859859 4.93613658 0 5 C0 3.35 0 1.7 0 0 Z M-52 27 C-53.0216626 27.33837891 -53.0216626 27.33837891 -54.06396484 27.68359375 C-90.82900941 40.13499368 -122.59640656 64.67083303 -144 97 C-144.38397949 97.57556641 -144.76795898 98.15113281 -145.16357422 98.74414062 C-161.41352847 123.44129924 -170.96978324 153.69590376 -172.203125 183.20703125 C-172.23390137 183.88580322 -172.26467773 184.5645752 -172.29638672 185.26391602 C-172.37059924 187.13881938 -172.4166578 189.01477602 -172.4609375 190.890625 C-173 194 -173 194 -175.04296875 195.94140625 C-177.3672482 197.95358471 -177.3672482 197.95358471 -177.27734375 201.51171875 C-177.18932791 202.90547155 -177.07431106 204.29768836 -176.9375 205.6875 C-176.8751416 206.4407959 -176.8127832 207.1940918 -176.74853516 207.97021484 C-176.53492831 210.31891259 -176.27793749 212.65809179 -176 215 C-175.91862793 215.68819824 -175.83725586 216.37639648 -175.75341797 217.08544922 C-169.97783298 262.07363969 -144.65639058 304.24549597 -109.3046875 332.34765625 C-105.31437798 335.39960531 -101.19697582 338.24100442 -97 341 C-96.42056641 341.3825293 -95.84113281 341.76505859 -95.24414062 342.15917969 C-56.43461707 367.42198276 -8.32609116 375.82136371 37 367 C80.68926765 357.19563287 118.22091283 332.75586064 145 297 C145.63808594 296.15695312 146.27617188 295.31390625 146.93359375 294.4453125 C166.13459532 268.10490851 176.46324813 236.28470944 179 204 C179.10441406 202.86820313 179.20882813 201.73640625 179.31640625 200.5703125 C179.26774245 197.85152034 179.26774245 197.85152034 177.03466797 196.23925781 C174.37778283 193.31521768 174.37944407 191.51105982 174.12890625 187.6015625 C174.03262939 186.32837158 173.93635254 185.05518066 173.8371582 183.7434082 C173.79305817 183.07153473 173.74895813 182.39966125 173.70352173 181.70742798 C170.48940928 134.24553856 149.68082905 93.52965473 115 61.1875 C84.53313948 34.73334794 42.70039893 17.41769507 2 19 C2 20.65 2 22.3 2 24 C1.34 24 0.68 24 0 24 C0 22.35 0 20.7 0 19 C-17.74584072 18.63275581 -35.16850541 21.4144841 -52 27 Z " fill="#FED165" transform="translate(399,148)"/>
<path d="M0 0 C0.71742371 -0.00100708 1.43484741 -0.00201416 2.17401123 -0.00305176 C12.95328857 0.00719556 23.13978189 0.54189731 33.625 3.25 C34.83414063 3.55164063 36.04328125 3.85328125 37.2890625 4.1640625 C66.57720722 12.01251958 94.58236473 28.27632444 113.625 52.25 C114.43324219 53.24773437 115.24148438 54.24546875 116.07421875 55.2734375 C134.82885796 79.17113657 146.57989329 109.35922751 146.9375 139.875 C146.96650391 140.70773437 146.99550781 141.54046875 147.02539062 142.3984375 C147.08263016 147.92865675 146.24252707 149.95332034 142.625 154.25 C142.14128505 157.03642985 141.84912691 159.57356809 141.6875 162.375 C138.60220946 198.32453969 119.65833727 231.78208319 92.625 255.25 C62.49364443 279.95070428 24.75260652 291.09287401 -13.94970703 287.78735352 C-51.21663206 284.04277159 -86.28019091 265.20253308 -110.02734375 236.234375 C-127.64329233 213.66528685 -140.18750202 185.52074792 -140.87109375 156.58203125 C-141.21675632 154.05518105 -141.21675632 154.05518105 -143.3828125 151.99609375 C-146.17118801 148.15250947 -145.94151476 145.13097536 -145.8125 140.5 C-145.79928711 139.66380127 -145.78607422 138.82760254 -145.77246094 137.96606445 C-144.70017403 100.08931654 -126.14703212 64.60830298 -99.50390625 38.41015625 C-97.52217388 36.59889548 -95.47751013 34.92005403 -93.375 33.25 C-91.87839844 32.03763672 -91.87839844 32.03763672 -90.3515625 30.80078125 C-64.28248212 10.34206698 -32.94553558 0.03192852 0 0 Z M-93.375 51.25 C-94.03886719 51.84941406 -94.70273437 52.44882813 -95.38671875 53.06640625 C-119.2675774 75.49406864 -131.63082114 109.19030968 -133.2265625 141.37109375 C-133.39917226 144.71881471 -133.82441932 147.94651591 -134.375 151.25 C-135.365 151.58 -136.355 151.91 -137.375 152.25 C-135.96200999 183.87174202 -124.50055399 211.88440921 -104.375 236.25 C-103.25931641 237.60544922 -103.25931641 237.60544922 -102.12109375 238.98828125 C-97.9171255 243.88331277 -93.4127368 248.22307123 -88.375 252.25 C-86.83972656 253.48363281 -86.83972656 253.48363281 -85.2734375 254.7421875 C-55.77515522 277.73446894 -19.31813578 287.84912038 17.85546875 283.75390625 C51.46119768 279.25283682 85.28145572 261.95103312 106.625 235.25 C107.44742188 234.22648438 108.26984375 233.20296875 109.1171875 232.1484375 C127.30065705 208.81969045 137.30726017 181.74010853 138.625 152.25 C137.635 151.92 136.645 151.59 135.625 151.25 C135.52010254 150.11123413 135.52010254 150.11123413 135.41308594 148.94946289 C131.8488704 111.08110536 122.11735564 80.3711804 95.625 52.25 C95.02558594 51.58613281 94.42617188 50.92226562 93.80859375 50.23828125 C71.49201599 26.47570493 37.58236421 13.7781877 5.48730469 12.27172852 C-32.23562621 11.30924024 -66.11921845 25.57291789 -93.375 51.25 Z " fill="#06D6A0" transform="translate(399.375,193.75)"/>
<path d="M0 0 C0.66 0 1.32 0 2 0 C2 1.98 2 3.96 2 6 C3.4540625 6.03867188 3.4540625 6.03867188 4.9375 6.078125 C34.80994315 7.2069489 60.23721933 20.06039323 80.81640625 41.44140625 C98.36539834 60.46998816 107.09139073 86.43443724 107.265625 112.046875 C107 114 107 114 105 117 C104.34 117 103.68 117 103 117 C102.87044922 118.56234375 102.87044922 118.56234375 102.73828125 120.15625 C100.76239744 141.30119303 93.50090556 160.42718667 80 177 C79.33613281 177.82757813 78.67226563 178.65515625 77.98828125 179.5078125 C60.43922757 200.20336933 35.68993046 211.24998501 9 214 C-17.0186895 216.12058773 -43.78071545 207.91292685 -63.94628906 191.34082031 C-85.01537393 173.28008073 -98.08408715 149.44228803 -100.6875 121.625 C-100.80074545 120.08397363 -100.90871021 118.54248273 -101 117 C-101.99 116.67 -102.98 116.34 -104 116 C-109.04403792 105.91192416 -103.21765976 88.69202851 -99.9375 78.5625 C-95.32974778 64.97930698 -88.70454676 52.63992476 -79 42 C-78.5467334 41.49903809 -78.0934668 40.99807617 -77.62646484 40.48193359 C-59.10946323 20.26556769 -34.39809041 8.10754542 -7 6 C-4.66680587 5.97451327 -2.33310428 5.96730682 0 6 C0 4.02 0 2.04 0 0 Z M-72 52 C-85.80710898 68.67059564 -92.68593082 90.07443298 -93.55859375 111.46875 C-94 114 -94 114 -95.5390625 115.515625 C-97.24954328 116.93938917 -97.24954328 116.93938917 -97.21484375 119.390625 C-94.70420284 145.27497913 -82.77261855 169.84582669 -63 187 C-50.51490925 196.764202 -36.44866719 204.24168148 -21 208 C-20.08605469 208.22429687 -19.17210937 208.44859375 -18.23046875 208.6796875 C8.05431005 214.04692904 34.83699182 207.55362002 57 193 C60.84156519 190.17691927 64.45403912 187.18458907 68 184 C68.70640625 183.37609375 69.4128125 182.7521875 70.140625 182.109375 C87.15847213 166.16351824 97.21112382 142.27393009 99.234375 119.34375 C99.2513205 116.93240979 99.2513205 116.93240979 97.5222168 115.60083008 C95.66538983 113.64810924 95.5737007 112.69523317 95.41015625 110.04296875 C95.35045654 109.26703369 95.29075684 108.49109863 95.22924805 107.69165039 C95.17422119 106.86528076 95.11919434 106.03891113 95.0625 105.1875 C92.77873283 78.80811721 80.50726903 56.68220245 61 39 C44.89878302 25.66446825 22.90906364 17.31445693 2 18 C2 19.98 2 21.96 2 24 C1.34 24 0.68 24 0 24 C0 22.02 0 20.04 0 18 C-27.9850833 16.52710088 -53.77731549 31.89646312 -72 52 Z " fill="#128AB1" transform="translate(399,228)"/>
<path d="M0 0 C0.84062988 0.6197168 0.84062988 0.6197168 1.69824219 1.25195312 C20.31513594 14.99947794 37.86472217 30.60807601 52 49 C52.78375 49.97839844 53.5675 50.95679688 54.375 51.96484375 C82.57016094 87.36148632 100.17485131 130.40072328 107 175 C107.11714355 175.74830078 107.23428711 176.49660156 107.35498047 177.26757812 C116.76760357 240.76432238 100.55419117 311.52388906 62.30712891 363.24609375 C61.87577637 363.82488281 61.44442383 364.40367187 61 365 C60.58540527 365.56332031 60.17081055 366.12664062 59.74365234 366.70703125 C45.9965292 385.31986227 30.38902139 402.86695299 12 417 C10.53240234 418.175625 10.53240234 418.175625 9.03515625 419.375 C-26.36148632 447.57016094 -69.40072328 465.17485131 -114 472 C-114.74830078 472.11714355 -115.49660156 472.23428711 -116.26757812 472.35498047 C-178.92729797 481.64352484 -249.15309045 466.00464684 -300.5078125 428.609375 C-301.67331603 427.74151523 -302.83741901 426.87177089 -304 426 C-304.56041992 425.58685547 -305.12083984 425.17371094 -305.69824219 424.74804688 C-324.31513594 411.00052206 -341.86472217 395.39192399 -356 377 C-356.78375 376.02160156 -357.5675 375.04320312 -358.375 374.03515625 C-386.57016094 338.63851368 -404.17485131 295.59927672 -411 251 C-411.17571533 249.87754883 -411.17571533 249.87754883 -411.35498047 248.73242188 C-420.98645088 183.75935255 -403.60400724 112.96308452 -364.63378906 60.16699219 C-350.46162968 41.36960924 -334.60054676 23.50997009 -316 9 C-315.01644531 8.21109375 -314.03289062 7.4221875 -313.01953125 6.609375 C-277.60808707 -21.56579328 -234.60221147 -39.1744022 -190 -46 C-189.25169922 -46.11714355 -188.50339844 -46.23428711 -187.73242188 -46.35498047 C-123.37469752 -55.89523344 -52.12297169 -39.08483754 0 0 Z M-275 -15 C-275.60344238 -14.67290039 -276.20688477 -14.34580078 -276.82861328 -14.00878906 C-306.47263177 2.19228742 -334.44077553 25.08684199 -355 52 C-355.75796875 52.92941406 -356.5159375 53.85882813 -357.296875 54.81640625 C-365.14841204 64.60582266 -371.61828239 75.21144767 -378 86 C-378.38929688 86.65162109 -378.77859375 87.30324219 -379.1796875 87.97460938 C-396.7476751 117.72791169 -406.26868593 152.82901852 -410 187 C-410.11214844 187.95648438 -410.22429687 188.91296875 -410.33984375 189.8984375 C-415.25081967 240.08457499 -404.04240839 291.83329518 -380 336 C-379.67290039 336.60344238 -379.34580078 337.20688477 -379.00878906 337.82861328 C-362.80771258 367.47263177 -339.91315801 395.44077553 -313 416 C-312.07058594 416.75796875 -311.14117187 417.5159375 -310.18359375 418.296875 C-295.77413396 429.85388745 -279.72791508 439.22830888 -263 447 C-262.32501465 447.32274902 -261.6500293 447.64549805 -260.95458984 447.97802734 C-234.66191234 460.53417224 -206.85286063 467.58640415 -178 471 C-176.91460937 471.13277344 -175.82921875 471.26554688 -174.7109375 471.40234375 C-124.7242089 476.32017554 -72.96070784 464.93027271 -29 441 C-28.39655762 440.67290039 -27.79311523 440.34580078 -27.17138672 440.00878906 C2.47263177 423.80771258 30.44077553 400.91315801 51 374 C51.75796875 373.07058594 52.5159375 372.14117187 53.296875 371.18359375 C64.85388745 356.77413396 74.22830888 340.72791508 82 324 C82.32274902 323.32501465 82.64549805 322.6500293 82.97802734 321.95458984 C95.53417224 295.66191234 102.58640415 267.85286063 106 239 C106.13277344 237.91460937 106.26554688 236.82921875 106.40234375 235.7109375 C111.32017554 185.7242089 99.93027271 133.96070784 76 90 C75.67290039 89.39655762 75.34580078 88.79311523 75.00878906 88.17138672 C58.80771258 58.52736823 35.91315801 30.55922447 9 10 C8.07058594 9.24203125 7.14117188 8.4840625 6.18359375 7.703125 C-8.22586604 -3.85388745 -24.27208492 -13.22830888 -41 -21 C-41.67498535 -21.32274902 -42.3499707 -21.64549805 -43.04541016 -21.97802734 C-69.33808766 -34.53417224 -97.14713937 -41.58640415 -126 -45 C-127.08539063 -45.13277344 -128.17078125 -45.26554687 -129.2890625 -45.40234375 C-179.2757911 -50.32017554 -231.03929216 -38.93027271 -275 -15 Z " fill="#FF6B6B" transform="translate(552,127)"/>
<path d="M0 0 C3.53171051 2.82130897 6.79921634 5.8103689 10 9 C10.63679688 9.61359375 11.27359375 10.2271875 11.9296875 10.859375 C23.1403453 22.51845911 27.29190143 38.20141207 27.3984375 53.96875 C26.95327031 57.35551213 26.05119665 58.37158219 24 61 C23.24395795 64.02078188 23.24395795 64.02078188 22.75 67.375 C19.53566783 83.18426637 10.45690634 96.53990112 -2.86328125 105.69921875 C-19.29230361 115.70079909 -36.68611768 118.65462804 -55.4921875 114.08984375 C-71.75135926 109.0382748 -84.26899923 98.59904548 -93 84 C-96.69894775 76.8054498 -98.77643391 69.53652833 -100.32421875 61.6171875 C-100.79930074 58.86212034 -100.79930074 58.86212034 -103 57 C-104.81315207 42.26286862 -100.55485793 27.99027332 -92 16 C-89.17869103 12.46828949 -86.1896311 9.20078366 -83 6 C-82.38640625 5.36320312 -81.7728125 4.72640625 -81.140625 4.0703125 C-60.00239079 -16.2549127 -23.19180199 -16.54695985 0 0 Z M-76.625 15.375 C-86.46412246 26.24981957 -91.05513781 36.53792169 -93.01269531 51.03295898 C-93.81045345 56.81045345 -93.81045345 56.81045345 -96 59 C-95.65415375 71.49115297 -90.21815131 82.85211844 -82 92 C-81.33097656 92.76183594 -80.66195313 93.52367187 -79.97265625 94.30859375 C-69.92937796 105.07832979 -57.03167354 111.38843601 -42.3359375 112.203125 C-25.25078352 112.40531617 -10.87114533 108.41759335 1.75390625 96.27734375 C2.86572266 95.15005859 2.86572266 95.15005859 4 94 C4.64839844 93.36191406 5.29679687 92.72382813 5.96484375 92.06640625 C13.69063643 83.93488267 18.51236282 73.09877624 20 62 C19.61868268 59.56729202 18.80993916 57.46137197 17.98828125 55.1328125 C17.00012939 52.00041015 16.55897178 49.13252174 16.1875 45.875 C13.75717746 29.46097548 4.56684416 17.56424623 -8.42578125 7.70703125 C-30.74838822 -7.09566867 -57.71405343 -1.73490404 -76.625 15.375 Z " fill="#B287FE" transform="translate(438,286)"/>
<path d="M0 0 C0.66 0 1.32 0 2 0 C2 0.66 2 1.32 2 2 C3.3303125 2.12375 3.3303125 2.12375 4.6875 2.25 C8.49179956 3.11135084 10.22253264 4.29968451 13 7 C15.72292642 11.46521849 15.65073421 15.91463266 15 21 C12.83701163 25.40608743 10.60319521 28.1987497 6 30 C0.95674616 30.68426057 -2.83076884 30.5739862 -7.4375 28.3125 C-10.79656012 25.28115306 -12.69355631 23.25860352 -13.31640625 18.66796875 C-13.58213652 12.95048191 -12.96847152 9.39749547 -9 5 C-5.56397188 2.42297891 -4.39927132 2 0 2 C0 1.34 0 0.68 0 0 Z " fill="#FDFDFD" transform="translate(399,324)"/>
<path d="M0 0 C95.04 0 190.08 0 288 0 C288 0.66 288 1.32 288 2 C192.96 2 97.92 2 0 2 C0 1.34 0 0.68 0 0 Z " fill="#898989" transform="translate(256,675)"/>
<path d="M0 0 C2 3 2 3 1.8125 6.0625 C1 9 1 9 -2 11 C-5.0625 10.8125 -5.0625 10.8125 -8 10 C-10.15502531 6.76746204 -10.46856135 5.74849077 -10 2 C-7.59684073 -2.24086929 -4.21511384 -1.07293807 0 0 Z " fill="#ADADAD" transform="translate(404,335)"/>
<path d="M0 0 C0.66 0 1.32 0 2 0 C2 2.64 2 5.28 2 8 C1.34 8 0.68 8 0 8 C0 5.36 0 2.72 0 0 Z " fill="#8A8A8A" transform="translate(399,308)"/>
<path d="M0 0 C0.66 0 1.32 0 2 0 C2 2.64 2 5.28 2 8 C1.34 8 0.68 8 0 8 C0 5.36 0 2.72 0 0 Z " fill="#8A8A8A" transform="translate(399,292)"/>
<path d="M0 0 C0.66 0 1.32 0 2 0 C2 2.64 2 5.28 2 8 C1.34 8 0.68 8 0 8 C0 5.36 0 2.72 0 0 Z " fill="#8A8A8A" transform="translate(399,260)"/>
<path d="M0 0 C0.66 0 1.32 0 2 0 C2 2.64 2 5.28 2 8 C1.34 8 0.68 8 0 8 C0 5.36 0 2.72 0 0 Z " fill="#8A8A8A" transform="translate(399,212)"/>
<path d="M0 0 C0.66 0 1.32 0 2 0 C2 2.64 2 5.28 2 8 C1.34 8 0.68 8 0 8 C0 5.36 0 2.72 0 0 Z " fill="#8A8A8A" transform="translate(399,180)"/>
<path d="M0 0 C0.66 0 1.32 0 2 0 C2 2.64 2 5.28 2 8 C1.34 8 0.68 8 0 8 C0 5.36 0 2.72 0 0 Z " fill="#8A8A8A" transform="translate(399,132)"/>
<path d="M0 0 C0.66 0 1.32 0 2 0 C2 2.64 2 5.28 2 8 C1.34 8 0.68 8 0 8 C0 5.36 0 2.72 0 0 Z " fill="#8A8A8A" transform="translate(399,100)"/>
<path d="M0 0 C0.66 0 1.32 0 2 0 C2 2.64 2 5.28 2 8 C1.34 8 0.68 8 0 8 C0 5.36 0 2.72 0 0 Z " fill="#8A8A8A" transform="translate(399,84)"/>
</svg>
